<svg xmlns="http://www.w3.org/2000/svg" xmlns:xlink="http://www.w3.org/1999/xlink" width="1024" zoomAndPan="magnify" viewBox="0 0 768 576" height="768" preserveAspectRatio="xMidYMid meet" version="1.0"><path fill="#4e53a3" d="M 687.023438 435.316406 C 686.957031 435.273438 686.957031 435.179688 686.910156 435.136719 C 683.863281 437.746094 680.699219 440.289062 677.355469 442.582031 C 676.597656 443.15625 675.820312 443.429688 675.0625 443.546875 C 649.328125 453.46875 626.230469 451.222656 607.464844 428.285156 C 603.726562 423.746094 600.496094 418.980469 597.609375 414.007812 C 603.40625 432.933594 614.429688 448.976562 632.601562 452.941406 C 654.234375 457.683594 670 455.390625 685.054688 437.953125 C 685.8125 437.082031 686.382812 436.234375 687.023438 435.316406 Z M 725.179688 326.058594 C 725.9375 305.984375 724.285156 279.289062 708.128906 264.667969 C 689.15625 247.457031 668.507812 237.808594 643.96875 251.558594 C 609.226562 270.921875 593.234375 317.601562 594.21875 356.144531 C 594.699219 375.601562 597.953125 396.660156 609.480469 412.953125 C 615.164062 420.972656 622.265625 429.292969 631.15625 433.875 C 647.449219 442.285156 657.050781 438.9375 671.902344 433.027344 C 704.832031 410.226562 723.710938 365.425781 725.179688 326.058594 Z M 735.972656 307.382812 C 737.941406 340.332031 729.855469 376.402344 711.957031 405.414062 C 712.347656 406.652344 712.1875 408.09375 711.199219 409.5625 C 705.082031 418.796875 705.265625 431.308594 697.796875 439.949219 C 690.027344 448.929688 682.902344 457.683594 672.726562 463.984375 C 658.105469 473.058594 631.546875 464.375 616.835938 459.402344 C 583.242188 448.082031 578.613281 385.339844 583.289062 356.765625 C 583.332031 356.625 583.378906 356.535156 583.425781 356.398438 C 583.289062 310.039062 601 260.015625 644.195312 239.300781 C 690.484375 217.070312 733.359375 263.085938 735.972656 307.382812 " fill-opacity="1" fill-rule="nonzero"/><path fill="#4e53a3" d="M 401.636719 272.160156 C 401.933594 238.109375 409.429688 206.140625 415.777344 172.890625 C 393.914062 170.117188 371.984375 167.828125 349.574219 167.828125 C 334.425781 167.828125 305.414062 165.054688 296.386719 181.804688 C 295.242188 183.914062 294.1875 186.066406 293.179688 188.265625 C 293.179688 188.839844 293.15625 189.414062 292.902344 190.078125 C 290.519531 197.480469 287.449219 208.523438 285.546875 220.417969 C 285.683594 226.054688 286.738281 231.738281 289.03125 237.285156 C 296.960938 256.625 308.003906 260.128906 327.734375 262.878906 C 343.820312 265.125 360.183594 267.140625 376.269531 269.203125 C 384.726562 270.351562 393.179688 271.242188 401.636719 272.160156 Z M 441.96875 176.28125 C 436.859375 175.59375 431.792969 174.929688 426.683594 174.265625 C 420.40625 207.285156 412.773438 239.347656 412.636719 273.167969 C 416.394531 273.488281 420.222656 273.878906 424.003906 274.222656 C 424.046875 274.132812 424.046875 274.015625 424.046875 273.925781 C 429.59375 256.441406 428.792969 236.046875 432.410156 217.78125 C 435.324219 203.324219 438.050781 190.167969 441.96875 176.28125 Z M 518.230469 452.183594 C 511.332031 437.425781 503.175781 421.085938 493.230469 408.277344 C 483.445312 395.652344 474.828125 379.472656 463.898438 368.085938 C 453.011719 356.765625 440.660156 348.515625 428.148438 339.097656 C 423.246094 335.359375 417.929688 333.550781 412.589844 331.925781 C 431.402344 357.40625 455.878906 379.792969 476.132812 403.398438 C 490.273438 419.828125 504.59375 435.660156 518.230469 452.183594 Z M 503.792969 457.777344 C 507.710938 460.777344 512.089844 464.261719 516.625 467.285156 C 498.019531 442.765625 477.234375 417.445312 454.914062 396.867188 C 441.097656 384.054688 431.496094 369.136719 419.074219 354.953125 C 416.507812 351.996094 413.875 349.042969 411.191406 346.0625 C 423.863281 373.011719 447.375 399.113281 465.890625 419.164062 C 478.21875 432.546875 489.355469 446.683594 503.792969 457.777344 Z M 520.660156 482.296875 C 510.050781 478.375 499.714844 468.386719 491.902344 462.496094 C 476.9375 451.265625 465.9375 434.792969 453.332031 421.042969 C 430.832031 396.570312 402.738281 364.164062 394.097656 331.257812 C 371.296875 355.089844 357.316406 391.320312 366.1875 421.269531 C 370.679688 436.464844 384.953125 466.894531 397.398438 476.980469 C 416.257812 492.21875 449.414062 493.269531 472.355469 493.546875 C 489.746094 493.796875 506.566406 490.886719 520.660156 482.296875 Z M 540.253906 463.6875 C 555.148438 442.054688 558.058594 415.289062 557.738281 389.785156 C 557.117188 340.675781 516.742188 311.917969 472.492188 306.417969 C 462.410156 306.464844 452.324219 306.464844 442.3125 306.214844 C 436.652344 306.898438 431.058594 307.953125 425.628906 309.375 C 419.648438 311.667969 413.828125 314.964844 408.28125 318.929688 C 415.453125 321.382812 423.429688 321.796875 429.640625 326.492188 C 437.523438 332.449219 445.40625 338.433594 453.632812 343.910156 C 472.214844 356.351562 480.007812 376.171875 494.558594 392.167969 C 507.367188 406.261719 517.679688 425.097656 525.679688 442.238281 C 529.734375 450.992188 534.980469 459.769531 535.898438 469.234375 C 537.410156 467.515625 538.855469 465.660156 540.253906 463.6875 Z M 568.757812 414.761719 C 568.757812 412.679688 568.667969 410.753906 568.621094 408.804688 C 568.4375 408.851562 568.140625 408.804688 567.957031 408.851562 C 563.328125 458.578125 537.273438 505.460938 479.527344 504.636719 C 467.816406 504.5 452.003906 504.636719 436.515625 502.871094 C 436.515625 503.398438 436.515625 503.882812 436.515625 504.203125 C 446.824219 508.167969 457.824219 510.367188 469.144531 510.367188 C 491.738281 510.367188 524.667969 503.882812 541.238281 486.441406 C 558.675781 468.085938 568.757812 439.464844 568.757812 414.761719 Z M 577.464844 282.722656 C 577.261719 282.382812 577.214844 281.992188 577.078125 281.671875 C 572.976562 285.910156 567.796875 288.796875 561.355469 289.460938 C 561.128906 289.554688 560.96875 289.644531 560.738281 289.644531 C 508.171875 289.644531 460.550781 290.21875 411.101562 284.582031 C 388.367188 281.992188 365.246094 278.898438 342.539062 275.941406 C 326.957031 273.878906 310.203125 273.304688 295.859375 266.523438 C 292.511719 264.894531 289.648438 262.652344 287.175781 259.96875 C 286.96875 260.40625 286.738281 260.792969 286.417969 261.183594 C 289.511719 270.625 295.46875 277.890625 305.894531 280.664062 C 321.523438 284.765625 337.953125 280.523438 353.582031 284.441406 C 369.394531 288.40625 388.253906 290.21875 404.570312 292.417969 C 417.539062 294.136719 430.785156 294.847656 444.007812 295.144531 C 453.472656 294.273438 463.371094 294.410156 473.203125 295.464844 C 489.402344 295.902344 506.085938 298.535156 521.941406 298.148438 C 543.117188 297.574219 565.984375 303.027344 577.464844 282.722656 Z M 559.980469 278.644531 C 576.6875 277.796875 582.324219 245.347656 581.796875 233.320312 C 581.132812 216.589844 569.195312 195.921875 551.046875 192.046875 C 526.570312 186.824219 500.449219 182.765625 475.539062 180.292969 C 468 179.511719 460.507812 178.621094 453.011719 177.65625 C 448.359375 193.949219 445.40625 209.945312 441.832031 226.71875 C 438.371094 242.78125 439.628906 259.257812 435.140625 274.980469 C 476.546875 277.933594 518.023438 278.644531 559.980469 278.644531 Z M 590.734375 216.589844 C 601.480469 243.148438 599.71875 308.757812 557.964844 308.757812 C 544.214844 308.757812 530.605469 308.09375 517.015625 307.425781 C 537.363281 316.9375 554.277344 331.832031 562.59375 352.433594 C 577.695312 378.902344 580.902344 399.480469 579.757812 430.6875 C 579 452.894531 560.875 484.679688 543.871094 498.382812 C 499.347656 534.222656 431.058594 527.4375 392.8125 487.933594 C 392.265625 487.335938 391.945312 486.761719 391.667969 486.191406 C 374.367188 470.242188 360.320312 441.527344 354.386719 419.78125 C 342.722656 377.183594 373.542969 325.4375 411.238281 304.21875 C 409.773438 304.035156 408.28125 303.875 406.816406 303.691406 C 383.257812 300.53125 358.441406 293.65625 334.609375 293.65625 C 318.5 293.65625 298.058594 295.007812 286.554688 281.007812 C 271.933594 263.132812 271.066406 238.910156 275.027344 216.019531 C 275.464844 206.554688 277.273438 197.617188 279.910156 191.132812 C 284.308594 180.476562 288.800781 165.582031 301.265625 161.800781 C 317.699219 156.875 332.546875 156.828125 349.527344 156.828125 C 383.304688 156.828125 415.890625 160.265625 449.117188 165.808594 C 467.472656 168.859375 486.492188 171.539062 504.984375 173.554688 C 519.835938 175.183594 539.769531 175.847656 553.957031 181.4375 C 570.429688 187.878906 583.378906 199.496094 589.359375 214.597656 C 589.933594 215.125 590.367188 215.789062 590.734375 216.589844 " fill-opacity="1" fill-rule="nonzero"/><path fill="#4e53a3" d="M 291.988281 399.683594 C 315.015625 388.640625 325.925781 359.011719 311.53125 336.324219 C 299.25 316.984375 268.773438 306.464844 248.46875 314.964844 C 229.542969 321.933594 211.644531 339.140625 209.445312 358.164062 C 209.535156 358.871094 209.535156 359.628906 209.285156 360.5 C 209.238281 360.636719 209.238281 360.773438 209.191406 360.933594 C 208.917969 369.871094 212.148438 379.128906 220.46875 387.835938 C 227.203125 394.804688 238.066406 407.363281 247.667969 409.46875 C 263.890625 413 277.894531 406.421875 291.988281 399.683594 Z M 279.519531 422.074219 C 297.394531 414.671875 338.253906 398.90625 327.117188 370.972656 C 323.035156 391.847656 307.613281 406.125 283.117188 415.542969 C 265.242188 422.417969 249.570312 424.753906 232.886719 413.914062 C 227.730469 410.570312 221.957031 405.941406 216.640625 400.625 C 216.457031 400.921875 216.273438 401.199219 216.023438 401.449219 C 220.054688 407.363281 225.441406 412.378906 232.269531 415.679688 C 247.027344 422.851562 263.273438 428.808594 279.519531 422.074219 Z M 315.132812 321.980469 C 329.109375 334.308594 342.492188 365.703125 338.574219 382.773438 C 332.226562 410.570312 308.578125 424.753906 282.5 432.683594 C 235.613281 446.9375 186.691406 407.660156 198.582031 358.164062 C 200.417969 333.023438 221.429688 313.292969 245.558594 304.355469 C 266.574219 295.582031 297.96875 303.738281 315.132812 321.980469 " fill-opacity="1" fill-rule="nonzero"/><path fill="#4e53a3" d="M 229.015625 202.3125 C 229.0625 201.96875 229.222656 201.695312 229.359375 201.351562 C 201.402344 180.910156 169.113281 164.800781 134.144531 163.953125 C 134.054688 164.046875 134.007812 164.183594 133.894531 164.320312 C 133.046875 165.421875 131.992188 166.085938 130.890625 166.429688 C 117.898438 189.023438 111.207031 221.699219 104.195312 246.21875 C 99.3125 263.359375 88.472656 278.324219 89.277344 296.910156 C 89.988281 314.828125 107.953125 329.402344 125.164062 329.632812 C 143.515625 329.929688 175.988281 331.925781 185.75 312.445312 C 192.417969 299.015625 198.308594 285.453125 204.609375 271.816406 C 215.035156 249.566406 220.148438 225 229.015625 202.3125 Z M 260.796875 115.488281 C 266.296875 98.875 271.933594 67.777344 261.898438 51.277344 C 250.144531 31.9375 228.03125 24.628906 206.28125 29.074219 C 178.050781 34.847656 165.332031 72.933594 158.023438 96.925781 C 152.683594 114.640625 149.039062 135.90625 140.445312 153.253906 C 174.542969 155.636719 206.238281 171.058594 233.804688 191.085938 C 238.113281 178.847656 239.808594 165.765625 244.460938 153.574219 C 249.433594 140.625 256.445312 128.6875 260.796875 115.488281 Z M 237.332031 19.289062 C 270.925781 32.558594 281.148438 57.695312 277.183594 93.054688 C 274.84375 113.722656 266 131.367188 257.84375 150.183594 C 249.914062 168.375 248.46875 188.496094 239.257812 205.980469 C 225.097656 241.109375 215.496094 277.453125 198.398438 311.621094 C 186.988281 334.46875 176.746094 334.511719 153.738281 339.625 C 140.539062 342.578125 122.160156 342.832031 109.394531 338.042969 C 79.195312 326.722656 71.65625 295.238281 83.777344 267.851562 C 92.667969 247.894531 99.679688 226.351562 105.960938 205.476562 C 110.953125 188.75 114.117188 172.066406 123.625 157.171875 C 124.152344 156.300781 124.863281 155.726562 125.597656 155.292969 C 126.101562 154.445312 126.878906 153.710938 127.890625 153.296875 C 138.109375 135.859375 141.109375 112.691406 147.480469 93.992188 C 152.636719 78.707031 157.265625 64.960938 165.585938 51.277344 C 180.617188 26.554688 206.464844 7.097656 237.332031 19.289062 " fill-opacity="1" fill-rule="nonzero"/><path fill="#4e53a3" d="M 197.070312 532.457031 C 196.910156 532.160156 196.820312 531.882812 196.679688 531.539062 C 152.957031 564.652344 70.554688 515.15625 43.925781 455.390625 C 45.324219 470.289062 50.25 484.519531 61.089844 495.65625 C 72.457031 507.363281 85.746094 517.265625 99.269531 526.292969 C 116.269531 537.613281 141.683594 552.1875 162.628906 551.316406 C 176.46875 550.699219 188.707031 543.160156 197.070312 532.457031 Z M 208.183594 494.507812 C 208 493.089844 207.816406 491.691406 207.472656 490.269531 C 207.039062 488.4375 207.472656 486.925781 208.390625 485.777344 C 207.382812 449.9375 187.5625 414.054688 161.804688 389.96875 C 134.097656 363.984375 70.738281 340.472656 52.246094 391.640625 C 36.386719 435.59375 67.554688 485.527344 103.851562 510.414062 C 120.328125 521.6875 140.125 532.019531 160.75 530.921875 C 187.421875 529.523438 200.601562 518.984375 208.183594 494.507812 Z M 149.039062 365.472656 C 189.28125 393.703125 222.230469 443.726562 219.277344 494.324219 C 219.320312 494.691406 219.320312 495.082031 219.277344 495.515625 C 220.855469 516.828125 210.910156 541.714844 192.417969 553.265625 C 167.257812 569.050781 142.304688 560.597656 117.691406 548.496094 C 91.085938 535.367188 65.101562 518.890625 46.722656 495.035156 C 29.878906 473.359375 30.269531 444.210938 35.492188 418.269531 C 35.492188 410.316406 36.730469 402.457031 39.457031 394.804688 C 56.117188 348.605469 109.671875 337.859375 149.039062 365.472656 " fill-opacity="1" fill-rule="nonzero"/></svg>